<svg width="81" height="81" viewBox="0 0 81 81" fill="none" xmlns="http://www.w3.org/2000/svg">
<path d="M40.5001 80.9167C62.8222 80.9167 80.9167 62.8221 80.9167 40.5C80.9167 18.1779 62.8222 0.0833435 40.5001 0.0833435C18.178 0.0833435 0.0834045 18.1779 0.0834045 40.5C0.107658 62.81 18.1901 80.8924 40.5001 80.9167ZM40.5001 8.16668C46.895 8.16668 53.1463 10.063 58.4635 13.6158C63.7807 17.1687 67.925 22.2184 70.3722 28.1266C72.8194 34.0347 73.4597 40.5359 72.2121 46.8079C70.9645 53.08 67.8851 58.8412 63.3632 63.3631C58.8413 67.885 53.0801 70.9645 46.808 72.2121C40.5359 73.4597 34.0348 72.8194 28.1266 70.3721C22.2185 67.9249 17.1687 63.7806 13.6159 58.4634C10.0631 53.1463 8.16674 46.8949 8.16674 40.5C8.17637 31.9276 11.586 23.7091 17.6476 17.6475C23.7092 11.5859 31.9277 8.1763 40.5001 8.16668ZM20.2917 44.5417H44.5417V20.2917H36.4584V36.4583H20.2917V44.5417Z" fill="white"/>
</svg>
