<svg width="10" height="14" viewBox="0 0 10 14" fill="none" xmlns="http://www.w3.org/2000/svg">
<path fill-rule="evenodd" clip-rule="evenodd" d="M7.91658 4.95833H8.49992C9.14158 4.95833 9.66658 5.48333 9.66658 6.125V11.9583C9.66658 12.6 9.14158 13.125 8.49992 13.125H1.49992C0.858252 13.125 0.333252 12.6 0.333252 11.9583V6.125C0.333252 5.48333 0.858252 4.95833 1.49992 4.95833H2.08325V3.79167C2.08325 2.18167 3.38992 0.875 4.99992 0.875C6.60992 0.875 7.91658 2.18167 7.91658 3.79167V4.95833ZM4.99992 2.04167C4.03159 2.04167 3.24992 2.82333 3.24992 3.79167V4.95833H6.74992V3.79167C6.74992 2.82333 5.96825 2.04167 4.99992 2.04167ZM1.49992 11.9583V6.125H8.49992V11.9583H1.49992ZM6.16658 9.04167C6.16658 9.68333 5.64158 10.2083 4.99992 10.2083C4.35825 10.2083 3.83325 9.68333 3.83325 9.04167C3.83325 8.4 4.35825 7.875 4.99992 7.875C5.64158 7.875 6.16658 8.4 6.16658 9.04167Z" fill="#8692A6"/>
</svg>
