<svg width="18" height="24" viewBox="0 0 18 24" fill="none" xmlns="http://www.w3.org/2000/svg">
<path d="M16.527 4.79899C17.739 7.40699 17.464 10.477 16.122 12.972C15.021 15.019 13.378 16.712 12.024 18.586C11.405 19.444 10.78 20.336 10.3549 21.313C10.214 21.638 10.092 21.971 9.97195 22.305C9.85095 22.638 9.74795 22.978 9.63195 23.313C9.52295 23.627 9.39595 23.997 9.00495 24H8.99795C8.53195 23.999 8.41895 23.47 8.30295 23.113C8.01895 22.239 7.72195 21.4 7.28395 20.588C6.77395 19.644 6.13895 18.771 5.49395 17.917L16.527 4.79899ZM5.54495 7.70499L1.58595 12.412C2.30995 13.952 3.40695 15.275 4.45695 16.592C4.70395 16.902 4.95095 17.214 5.19395 17.528L10.178 11.603L10.149 11.613C8.40795 12.214 6.45795 11.322 5.75695 9.62599C5.66106 9.39577 5.59097 9.15564 5.54795 8.90999C5.48495 8.47299 5.47095 8.14899 5.54395 7.71199L5.54495 7.70499ZM2.49195 3.14899L2.48895 3.15299C0.54195 5.61899 0.20795 9.03299 1.37195 11.923L6.15695 6.23399L6.09895 6.18399L2.49195 3.14899ZM11.661 0.435986L7.82295 4.99899C7.83178 4.99521 7.84079 4.99188 7.84995 4.98899C9.44995 4.43799 11.2529 5.13899 12.07 6.61499C12.2459 6.93399 12.393 7.29799 12.4469 7.65999C12.5149 8.10599 12.5319 8.43299 12.459 8.87999L12.456 8.89599L16.292 4.33499C15.2895 2.50663 13.6416 1.11756 11.67 0.438986L11.661 0.435986ZM6.46595 5.86799L11.162 0.284986L11.115 0.272986C10.4201 0.0903313 9.70444 -0.00143402 8.98595 -1.42937e-05C7.82255 0.0108825 6.67398 0.262223 5.61236 0.738223C4.55074 1.21422 3.59901 1.9046 2.81695 2.76599L2.80095 2.78399L6.46595 5.86799Z" fill="#FF7A00"/>
</svg>
