<svg width="18" height="20" viewBox="0 0 18 20" fill="none" xmlns="http://www.w3.org/2000/svg">
<path d="M0 0.25V19.75H8.25V16.75H9.75V19.75H18V0.25H0ZM1.5 1.75H16.5V18.25H11.25V15.25H6.75V18.25H1.5V1.75ZM3 3.25V4.75H6V3.25H3ZM7.5 3.25V4.75H10.5V3.25H7.5ZM12 3.25V4.75H15V3.25H12ZM3 6.25V7.75H6V6.25H3ZM7.5 6.25V7.75H10.5V6.25H7.5ZM12 6.25V7.75H15V6.25H12ZM3 9.25V10.75H6V9.25H3ZM7.5 9.25V10.75H10.5V9.25H7.5ZM12 9.25V10.75H15V9.25H12ZM3 12.25V13.75H6V12.25H3ZM7.5 12.25V13.75H10.5V12.25H7.5ZM12 12.25V13.75H15V12.25H12ZM3 15.25V16.75H6V15.25H3ZM12 15.25V16.75H15V15.25H12Z" fill="#F70000"/>
</svg>
