<svg width="16" height="16" viewBox="0 0 16 16" fill="none" xmlns="http://www.w3.org/2000/svg">
<path d="M6.66667 6H4" stroke="white" stroke-opacity="0.84" stroke-width="1.5" stroke-linecap="round" stroke-linejoin="round"/>
<path d="M10.3334 7.33333C9.89139 7.33333 9.46746 7.15774 9.1549 6.84518C8.84234 6.53262 8.66675 6.10869 8.66675 5.66667C8.66675 5.22464 8.84234 4.80072 9.1549 4.48816C9.46746 4.17559 9.89139 4 10.3334 4C10.7754 4 11.1994 4.17559 11.5119 4.48816C11.8245 4.80072 12.0001 5.22464 12.0001 5.66667C12.0001 6.10869 11.8245 6.53262 11.5119 6.84518C11.1994 7.15774 10.7754 7.33333 10.3334 7.33333Z" stroke="white" stroke-opacity="0.84" stroke-width="1.5" stroke-linecap="round" stroke-linejoin="round"/>
<path d="M4 4H6" stroke="white" stroke-opacity="0.84" stroke-width="1.5" stroke-linecap="round" stroke-linejoin="round"/>
<path d="M12 12L9 10L7.33333 11.3333L4 8.66667" stroke="white" stroke-opacity="0.84" stroke-width="1.5" stroke-linecap="round" stroke-linejoin="round"/>
<path d="M2 13.6V2.4C2 2.29391 2.04214 2.19217 2.11716 2.11716C2.19217 2.04214 2.29391 2 2.4 2H13.6C13.7061 2 13.8078 2.04214 13.8828 2.11716C13.9579 2.19217 14 2.29391 14 2.4V13.6C14 13.7061 13.9579 13.8078 13.8828 13.8828C13.8078 13.9579 13.7061 14 13.6 14H2.4C2.29391 14 2.19217 13.9579 2.11716 13.8828C2.04214 13.8078 2 13.7061 2 13.6V13.6Z" stroke="white" stroke-opacity="0.84" stroke-width="1.5"/>
</svg>
