<svg width="97" height="97" viewBox="0 0 97 97" fill="none" xmlns="http://www.w3.org/2000/svg">
<path d="M68.2031 78.8125C66.1048 78.8125 64.0536 78.1903 62.3089 77.0245C60.5642 75.8587 59.2043 74.2018 58.4013 72.2632C57.5983 70.3246 57.3882 68.1914 57.7976 66.1333C58.207 64.0753 59.2174 62.1849 60.7012 60.7012C62.1849 59.2174 64.0753 58.207 66.1333 57.7976C68.1914 57.3882 70.3246 57.5983 72.2632 58.4013C74.2018 59.2043 75.8587 60.5642 77.0245 62.3089C78.1903 64.0536 78.8125 66.1048 78.8125 68.2031C78.8093 71.0159 77.6905 73.7126 75.7016 75.7016C73.7126 77.6905 71.0159 78.8093 68.2031 78.8125ZM68.2031 63.6563C67.3038 63.6563 66.4248 63.9229 65.677 64.4225C64.9293 64.9222 64.3465 65.6323 64.0024 66.4631C63.6582 67.294 63.5682 68.2082 63.7436 69.0902C63.9191 69.9722 64.3521 70.7824 64.988 71.4183C65.6239 72.0541 66.4341 72.4872 67.3161 72.6626C68.1981 72.8381 69.1123 72.748 69.9431 72.4039C70.774 72.0598 71.4841 71.477 71.9837 70.7292C72.4833 69.9815 72.75 69.1024 72.75 68.2031C72.7484 66.9977 72.2688 65.8421 71.4165 64.9898C70.5641 64.1374 69.4085 63.6579 68.2031 63.6563Z" fill="white"/>
<path d="M68.2031 93.9688C63.1072 93.9688 58.1257 92.4576 53.8885 89.6265C49.6514 86.7953 46.3489 82.7713 44.3988 78.0632C42.4487 73.3552 41.9384 68.1746 42.9326 63.1765C43.9268 58.1785 46.3807 53.5875 49.9841 49.9841C53.5875 46.3807 58.1785 43.9268 63.1765 42.9326C68.1746 41.9384 73.3552 42.4487 78.0632 44.3988C82.7713 46.3489 86.7953 49.6514 89.6265 53.8885C92.4576 58.1257 93.9688 63.1072 93.9688 68.2031C93.9607 75.0341 91.2436 81.5831 86.4133 86.4133C81.5831 91.2436 75.0341 93.9607 68.2031 93.9688ZM68.2031 48.5C64.3062 48.5 60.4968 49.6556 57.2567 51.8206C54.0165 53.9856 51.4911 57.0628 49.9998 60.6631C48.5085 64.2634 48.1184 68.225 48.8786 72.047C49.6388 75.8691 51.5154 79.3798 54.2709 82.1354C57.0265 84.8909 60.5372 86.7674 64.3593 87.5277C68.1813 88.2879 72.1429 87.8977 75.7432 86.4065C79.3435 84.9152 82.4207 82.3898 84.5857 79.1496C86.7507 75.9094 87.9063 72.1001 87.9063 68.2031C87.9007 62.9793 85.823 57.971 82.1292 54.2771C78.4353 50.5833 73.427 48.5056 68.2031 48.5Z" fill="white"/>
<path d="M75.7812 15.1562H66.6875V12.125C66.6827 10.5186 66.0424 8.97937 64.9065 7.84347C63.7706 6.70756 62.2314 6.0673 60.625 6.0625H36.375C34.7686 6.0673 33.2294 6.70756 32.0935 7.84347C30.9576 8.97937 30.3173 10.5186 30.3125 12.125V15.1562H21.2188C19.6124 15.161 18.0731 15.8013 16.9372 16.9372C15.8013 18.0731 15.161 19.6124 15.1562 21.2188V84.875C15.161 86.4814 15.8013 88.0206 16.9372 89.1565C18.0731 90.2924 19.6124 90.9327 21.2188 90.9375H36.375V84.875H21.2188V21.2188H30.3125V30.3125H66.6875V21.2188H75.7812V36.375H81.8438V21.2188C81.839 19.6124 81.1987 18.0731 80.0628 16.9372C78.9269 15.8013 77.3876 15.161 75.7812 15.1562ZM60.625 24.25H36.375V12.125H60.625V24.25Z" fill="white"/>
</svg>
